<?xml version="1.0" encoding="UTF-8" standalone="no"?>
<!-- Created with Inkscape (http://www.inkscape.org/) -->

<svg
   xmlns:dc="http://purl.org/dc/elements/1.1/"
   xmlns:cc="http://creativecommons.org/ns#"
   xmlns:rdf="http://www.w3.org/1999/02/22-rdf-syntax-ns#"
   xmlns:svg="http://www.w3.org/2000/svg"
   xmlns="http://www.w3.org/2000/svg"
   xmlns:sodipodi="http://sodipodi.sourceforge.net/DTD/sodipodi-0.dtd"
   xmlns:inkscape="http://www.inkscape.org/namespaces/inkscape"
   width="210mm"
   height="297mm"
   viewBox="0 0 210 297"
   version="1.1"
   id="svg8"
   sodipodi:docname="logo.svg"
   inkscape:version="0.92.0 r15299">
  <defs
     id="defs2" />
  <sodipodi:namedview
     id="base"
     pagecolor="#ffffff"
     bordercolor="#666666"
     borderopacity="1.0"
     inkscape:pageopacity="0.0"
     inkscape:pageshadow="2"
     inkscape:zoom="0.49497475"
     inkscape:cx="201.97321"
     inkscape:cy="741.62205"
     inkscape:document-units="mm"
     inkscape:current-layer="layer1"
     showgrid="false"
     showguides="false"
     inkscape:window-width="1920"
     inkscape:window-height="1001"
     inkscape:window-x="-9"
     inkscape:window-y="-9"
     inkscape:window-maximized="1" />
  <metadata
     id="metadata5">
    <rdf:RDF>
      <cc:Work
         rdf:about="">
        <dc:format>image/svg+xml</dc:format>
        <dc:type
           rdf:resource="http://purl.org/dc/dcmitype/StillImage" />
        <dc:title></dc:title>
      </cc:Work>
    </rdf:RDF>
  </metadata>
  <g
     inkscape:label="Layer 1"
     inkscape:groupmode="layer"
     id="layer1">
    <text
       xml:space="preserve"
       style="font-style:normal;font-weight:normal;font-size:10.58333302px;line-height:6.61458302px;font-family:sans-serif;letter-spacing:0px;word-spacing:0px;fill:#000000;fill-opacity:1;stroke:none;stroke-width:0.26458332"
       x="69.16964"
       y="121.24107"
       id="text3712"><tspan
         sodipodi:role="line"
         id="tspan3710"
         x="69.16964"
         y="127.58928"
         style="stroke-width:0.26458332"></tspan></text>
    <g
       id="g4603"
       transform="matrix(1.0052409,0,0,0.82339096,-1.0888877,3.5074896)"
       inkscape:export-xdpi="96"
       inkscape:export-ydpi="96">
      <flowRoot
         transform="matrix(1.0077948,0,0,1.3623055,-39.411649,-51.258983)"
         style="font-style:normal;font-variant:normal;font-weight:normal;font-stretch:normal;font-size:46.66666794px;line-height:45.35433197px;font-family:'Berlin Sans FB Demi';-inkscape-font-specification:'Berlin Sans FB Demi';letter-spacing:2px;word-spacing:0px;fill:#e6e6e6;fill-opacity:1;stroke:none"
         id="flowRoot3680"
         xml:space="preserve"><flowRegion
           style="font-style:normal;font-variant:normal;font-weight:normal;font-stretch:normal;font-size:46.66666794px;line-height:45.35433197px;font-family:'Berlin Sans FB Demi';-inkscape-font-specification:'Berlin Sans FB Demi';letter-spacing:2px;word-spacing:0px;fill:#e6e6e6"
           id="flowRegion3682"><rect
             style="font-style:normal;font-variant:normal;font-weight:normal;font-stretch:normal;font-size:46.66666794px;line-height:45.35433197px;font-family:'Berlin Sans FB Demi';-inkscape-font-specification:'Berlin Sans FB Demi';letter-spacing:2px;word-spacing:0px;fill:#e6e6e6"
             y="49.662544"
             x="42.85714"
             height="257.14285"
             width="591.42853"
             id="rect3684" /></flowRegion><flowPara
           style="font-style:normal;font-variant:normal;font-weight:normal;font-stretch:normal;font-size:53.33333588px;line-height:45.35433197px;font-family:'Berlin Sans FB Demi';-inkscape-font-specification:'Berlin Sans FB Demi';letter-spacing:2px;word-spacing:0px;fill:#e6e6e6"
           id="flowPara3692"><flowSpan
   id="flowSpan3706"
   style="font-size:53.33333588px;fill:#b3b3b3">T</flowSpan>he</flowPara><flowPara
           style="font-style:normal;font-variant:normal;font-weight:normal;font-stretch:normal;font-size:53.33333588px;line-height:45.35433197px;font-family:'Berlin Sans FB Demi';-inkscape-font-specification:'Berlin Sans FB Demi';letter-spacing:2px;word-spacing:0px;fill:#e6e6e6"
           id="flowPara3698"> <flowSpan
   id="flowSpan3704"
   style="font-size:53.33333588px;letter-spacing:2px;fill:#b3b3b3">L</flowSpan>ibrary</flowPara></flowRoot>      <path
         inkscape:connector-curvature="0"
         id="path3788"
         d="m 148.72109,85.958571 c -8.89286,-2.525497 -18.5274,-5.472692 -20.1157,-6.15337 -0.89616,-0.384056 -1.03899,-0.720171 -0.47474,-1.117206 0.29995,-0.211061 0.39661,-0.204387 0.60956,0.04206 0.1392,0.161102 0.55234,0.421164 0.91807,0.577925 1.45933,0.625458 24.64847,6.971373 24.93194,6.822846 0.24982,-0.130912 0.23744,-2.539675 -0.013,-2.539675 -0.10439,0 -0.13397,-0.123367 -0.0658,-0.274151 0.19436,-0.429388 -0.34892,-1.591252 -0.87817,-1.87809 -0.26342,-0.142768 -1.47643,-0.436989 -2.69556,-0.653829 -1.21913,-0.216838 -3.06446,-0.636167 -4.10072,-0.931849 -1.03626,-0.295676 -2.35887,-0.632632 -2.93912,-0.74878 -0.58026,-0.11615 -2.32584,-0.663903 -3.87907,-1.217236 -1.55322,-0.553331 -4.46987,-1.494583 -6.48144,-2.09167 -3.82751,-1.1361 -7.09315,-2.307416 -7.09315,-2.544164 0,-0.07645 0.77076,-0.635536 1.7128,-1.242403 0.94202,-0.606862 1.86295,-1.201209 2.04649,-1.320765 0.28148,-0.183351 0.0307,-0.483826 -1.60196,-1.919798 -1.96871,-1.731502 -2.318,-2.340094 -1.62351,-2.828774 0.24665,-0.173556 0.42398,-0.12483 0.84511,0.232208 0.64201,0.544333 1.89145,0.952156 6.71643,2.192277 3.80968,0.97917 4.64079,1.110567 4.4852,0.709104 -0.30806,-0.794924 -5.15666,-3.022074 -9.70834,-4.459434 -1.60655,-0.507325 -2.94979,-0.948337 -2.98495,-0.98003 -0.17494,-0.157641 -0.35666,-3.346037 -0.19055,-3.343347 0.10585,0.0015 3.77909,2.025572 8.16274,4.497456 4.38365,2.471884 8.04937,4.452896 8.14602,4.402244 0.0967,-0.05065 0.17576,-9.82e-4 0.17576,0.110966 0,0.111679 0.2743,0.305233 0.60956,0.430117 0.33526,0.124885 0.65944,0.27107 0.72039,0.324859 0.16584,0.14633 1.48922,0.755563 1.64125,0.755563 0.20971,0 0.14268,-4.150984 -0.0802,-4.965716 -0.27528,-1.006361 -0.86396,-1.61901 -2.02353,-2.105985 -0.53807,-0.225962 -4.56921,-1.428782 -8.9581,-2.672921 -12.66918,-3.591409 -15.18235,-4.414285 -14.70859,-4.815951 0.064,-0.05423 2.70131,0.615169 5.86081,1.487537 12.59397,3.477324 21.8306,5.798821 22.37162,5.622798 0.39729,-0.129256 0.45224,-1.592958 0.0926,-2.467563 -0.19256,-0.468329 -0.49561,-0.664629 -1.60704,-1.040939 -0.75335,-0.255069 -1.71884,-0.5482 -2.14554,-0.651402 -0.42669,-0.103197 -4.7657,-1.216057 -9.64223,-2.473014 -12.1916,-3.142464 -15.40542,-4.0786 -15.40542,-4.487367 0,-0.16243 0.72764,-0.686998 4.65488,-3.355793 2.76682,-1.880227 4.8085,-3.565128 4.56758,-3.769398 -0.0701,-0.05944 0.0148,-0.201018 0.18859,-0.314601 0.17385,-0.113589 1.38368,-1.94021 2.68853,-4.05917 2.87051,-4.661445 4.84566,-7.698709 7.2543,-11.155186 l 1.81471,-2.604177 4.7657,0.112865 c 6.23856,0.147746 25.14655,1.184387 26.20483,1.436692 1.24274,0.296284 1.50373,0.753149 1.49673,2.619989 -0.0105,2.802347 -0.36349,4.98458 -1.11615,6.900034 -0.50033,1.27331 -0.64907,1.898793 -0.49938,2.099989 0.11725,0.157596 0.95399,0.632151 1.85942,1.054557 l 1.64624,0.768019 0.17452,1.121998 c 0.096,0.6171 0.22649,1.479738 0.28999,1.916965 l 0.11548,0.794967 3.03491,1.407717 c 4.03747,1.872749 5.18448,2.533181 5.56747,3.205655 0.3479,0.610849 0.6493,3.322732 0.66907,6.019988 l 0.0125,1.698968 -1.77329,0.702154 c -1.2247,0.484931 -1.77328,0.803803 -1.77328,1.03074 0,0.180727 0.43961,0.679341 0.97691,1.108032 0.92121,0.734994 0.98125,0.8454 1.05289,1.936312 0.0418,0.636282 0.0417,1.617674 -1.5e-4,2.180866 -0.0758,1.018459 -0.0834,1.02811 -1.39908,1.785612 -0.72754,0.418888 -1.37718,0.881775 -1.44366,1.028633 -0.0664,0.146855 -0.22521,0.267013 -0.35279,0.267013 -0.28184,0 -0.47464,0.151882 -11.69029,9.209592 -12.80882,10.344345 -12.54943,10.149368 -13.49578,10.144902 -0.3189,-0.0015 -3.07343,-0.710917 -6.12126,-1.576479 z m -5.32317,-8.710188 c -0.41366,-2.171856 -0.58744,-2.509553 -1.90654,-3.705128 -2.12896,-1.92958 -6.06786,-3.987977 -10.08366,-5.269537 -1.94687,-0.621301 -2.32025,-0.616214 -1.62182,0.02207 1.6171,1.477877 13.01269,9.657341 13.45455,9.657341 0.21317,0 0.25557,-0.189726 0.15747,-0.704753 z m 20.0143,-25.446039 0.0615,-2.565041 -1.28066,-0.115404 c -0.70437,-0.06347 -6.16828,-0.456768 -12.14203,-0.873993 -5.97375,-0.417226 -12.75656,-0.922766 -15.07292,-1.123425 -2.31635,-0.20066 -4.26142,-0.36491 -4.32238,-0.36501 -0.18973,-3.92e-4 -0.24078,5.151898 -0.0534,5.390682 0.11791,0.150268 2.62433,0.391824 7.48555,0.721416 4.01956,0.272526 10.55007,0.733035 14.51225,1.023356 3.96219,0.290318 8.00196,0.515385 8.97726,0.500156 l 1.77329,-0.02769 z"
         style="fill:#e6e6e6;stroke-width:0.20410199" />
    </g>
  </g>
</svg>
